<svg xmlns="http://www.w3.org/2000/svg" version="1.1" xmlns:xlink="http://www.w3.org/1999/xlink" xmlns:svgjs="http://svgjs.dev/svgjs" width="1000" height="459" viewBox="0 0 1000 459"><g transform="matrix(1,0,0,1,-0.6060589231011022,-0.6041146218550182)"><svg viewBox="0 0 396 182" data-background-color="#f0cf90" preserveAspectRatio="xMidYMid meet" height="459" width="1000" xmlns="http://www.w3.org/2000/svg" xmlns:xlink="http://www.w3.org/1999/xlink"><g id="tight-bounds" transform="matrix(1,0,0,1,0.24000066645197649,0.23954000256560448)"><svg viewBox="0 0 395.52 181.5209199948688" height="181.5209199948688" width="395.52"><g><svg viewBox="0 0 604.8278482664657 277.58117783132525" height="181.5209199948688" width="395.52"><g transform="matrix(1,0,0,1,209.30784826646567,103.44793831325299)"><svg viewBox="0 0 395.52 70.68530120481927" height="70.68530120481927" width="395.52"><g><svg viewBox="0 0 395.52 70.68530120481927" height="70.68530120481927" width="395.52"><g><svg viewBox="0 0 395.52 70.68530120481927" height="70.68530120481927" width="395.52"><g transform="matrix(1,0,0,1,0,0)"><svg width="395.52" viewBox="0 -37.5 218.8300018310547 39.11000061035156" height="70.68530120481927" data-palette-color="#000000"><path d="M23.34-11.72L23.34-11.72Q22.9-9.52 21.95-7.15 21-4.79 19.51-2.83 18.02-0.88 15.97 0.37 13.92 1.61 11.28 1.61L11.28 1.61Q9.33 1.61 7.76 0.83 6.2 0.05 4.93-1.27 3.66-2.59 2.73-4.3 1.81-6.01 1.2-7.84 0.59-9.67 0.29-11.47 0-13.28 0-14.84L0-14.84Q0-17.04 0.42-19.56 0.83-22.07 1.66-24.54 2.49-27 3.76-29.27 5.03-31.54 6.76-33.28 8.5-35.01 10.67-36.06 12.84-37.11 15.53-37.11L15.53-37.11Q17.24-37.11 18.7-36.45 20.17-35.79 21.24-34.69 22.31-33.59 22.92-32.08 23.54-30.57 23.54-28.91L23.54-28.91 23.54-28.47Q23.54-27.59 23.46-26.29 23.39-25 23-23.83 22.61-22.66 21.83-21.8 21.04-20.95 19.63-20.95L19.63-20.95Q17.92-20.95 17.04-21.73 16.16-22.51 16.16-24.32L16.16-24.32Q16.16-25 16.21-25.68 16.26-26.37 16.26-27.05L16.26-27.05Q16.26-28.08 15.92-28.64 15.58-29.2 14.5-29.2L14.5-29.2Q13.28-29.2 12.3-28.42 11.33-27.64 10.6-26.37 9.86-25.1 9.33-23.49 8.79-21.88 8.45-20.24 8.11-18.6 7.96-17.09 7.81-15.58 7.81-14.5L7.81-14.5Q7.81-13.62 7.91-12.48 8.01-11.33 8.33-10.28 8.64-9.23 9.28-8.5 9.91-7.76 10.94-7.76L10.94-7.76Q12.7-7.76 13.77-8.86 14.84-9.96 15.23-11.67L15.23-11.67Q14.55-11.77 13.89-11.99 13.23-12.21 12.67-12.62 12.11-13.04 11.77-13.65 11.43-14.26 11.43-15.09L11.43-15.09Q11.43-16.6 12.45-17.46 13.48-18.31 14.87-18.75 16.26-19.19 17.72-19.31 19.19-19.43 20.07-19.43L20.07-19.43Q20.7-19.43 21.92-19.34 23.14-19.24 24.34-18.92 25.54-18.6 26.42-18.02 27.29-17.43 27.29-16.5L27.29-16.5Q27.29-14.65 26.29-13.31 25.29-11.96 23.34-11.72ZM38.67 1.61L38.67 1.61Q35.69 1.61 33.49 0.12 31.3-1.37 29.86-3.88 28.42-6.4 27.71-9.72 27-13.04 27-16.7L27-16.7Q27-20.12 27.76-23.63 28.51-27.15 30.08-29.98 31.64-32.81 34.03-34.62 36.42-36.43 39.74-36.43L39.74-36.43Q42.97-36.43 45.14-34.69 47.31-32.96 48.61-30.2 49.9-27.44 50.46-24.02 51.02-20.61 51.02-17.19L51.02-17.19Q51.02-13.38 50.27-9.99 49.51-6.59 47.97-4 46.43-1.42 44.11 0.1 41.79 1.61 38.67 1.61ZM39.26-25.63L39.26-25.63Q38.33-25.63 37.67-24.9 37.01-24.17 36.57-22.97 36.13-21.78 35.94-20.29 35.74-18.8 35.74-17.29L35.74-17.29Q35.74-15.58 35.96-13.87 36.18-12.16 36.62-10.79 37.06-9.42 37.72-8.59 38.38-7.76 39.3-7.76L39.3-7.76Q40.38-7.76 41.01-8.84 41.65-9.91 42.01-11.43 42.38-12.94 42.5-14.55 42.62-16.16 42.62-17.24L42.62-17.24Q42.62-18.55 42.45-20.02 42.28-21.48 41.89-22.73 41.5-23.97 40.87-24.8 40.23-25.63 39.26-25.63ZM64.94 1.61L64.94 1.61Q61.96 1.61 59.76 0.12 57.56-1.37 56.12-3.88 54.68-6.4 53.97-9.72 53.27-13.04 53.27-16.7L53.27-16.7Q53.27-20.12 54.02-23.63 54.78-27.15 56.34-29.98 57.91-32.81 60.3-34.62 62.69-36.43 66.01-36.43L66.01-36.43Q69.23-36.43 71.41-34.69 73.58-32.96 74.87-30.2 76.17-27.44 76.73-24.02 77.29-20.61 77.29-17.19L77.29-17.19Q77.29-13.38 76.53-9.99 75.78-6.59 74.24-4 72.7-1.42 70.38 0.1 68.06 1.61 64.94 1.61ZM65.52-25.63L65.52-25.63Q64.59-25.63 63.94-24.9 63.28-24.17 62.84-22.97 62.4-21.78 62.2-20.29 62.01-18.8 62.01-17.29L62.01-17.29Q62.01-15.58 62.23-13.87 62.45-12.16 62.89-10.79 63.33-9.42 63.98-8.59 64.64-7.76 65.57-7.76L65.57-7.76Q66.65-7.76 67.28-8.84 67.91-9.91 68.28-11.43 68.65-12.94 68.77-14.55 68.89-16.16 68.89-17.24L68.89-17.24Q68.89-18.55 68.72-20.02 68.55-21.48 68.16-22.73 67.77-23.97 67.13-24.8 66.5-25.63 65.52-25.63ZM105.17-21.97L105.17-21.97Q105.17-17.68 103.41-13.7 101.65-9.72 98.7-6.64 95.74-3.56 91.81-1.73 87.88 0.1 83.54 0.1L83.54 0.1 83.44 0.1Q82.56 0.1 82-0.71 81.44-1.51 81.05-2.73 80.66-3.96 80.46-5.47 80.27-6.98 80.17-8.42 80.07-9.86 80.07-11.01 80.07-12.16 80.07-12.74L80.07-12.74Q80.07-14.4 80.12-16.04 80.17-17.68 80.27-19.34L80.27-19.34Q80.27-19.87 80.34-20.92 80.41-21.97 80.51-23.29 80.61-24.61 80.75-26.05 80.9-27.49 81.07-28.74 81.24-29.98 81.41-30.93 81.58-31.88 81.83-32.23L81.83-32.23Q82.46-33.3 83.78-34.13 85.1-34.96 86.64-35.5 88.18-36.04 89.76-36.3 91.35-36.57 92.52-36.57L92.52-36.57Q95.74-36.57 98.11-35.38 100.48-34.18 102.07-32.15 103.65-30.13 104.41-27.49 105.17-24.85 105.17-21.97ZM96.97-20.56L96.97-20.56Q96.97-21.63 96.57-22.75 96.18-23.88 95.48-24.8 94.77-25.73 93.77-26.29 92.77-26.86 91.55-26.86L91.55-26.86Q90.52-26.86 89.45-26.37L89.45-26.37Q89.2-26.22 89.01-25.46 88.81-24.71 88.69-23.63 88.57-22.56 88.47-21.29 88.37-20.02 88.35-18.87 88.32-17.72 88.3-16.85 88.27-15.97 88.27-15.67L88.27-15.67Q88.27-15.19 88.27-14.23 88.27-13.28 88.35-12.35 88.42-11.43 88.52-10.74 88.62-10.06 88.86-10.06L88.86-10.06Q90.32-10.06 91.76-11.21 93.21-12.35 94.38-14.01 95.55-15.67 96.26-17.48 96.97-19.29 96.97-20.56ZM130.8-28.56L130.8-27.93Q130.8-23.88 130.61-19.8 130.41-15.72 130.12-11.67L130.12-11.67Q130.07-10.94 130.02-9.69 129.97-8.45 129.82-7.01 129.68-5.57 129.43-4.1 129.19-2.64 128.68-1.44 128.16-0.24 127.36 0.51 126.55 1.27 125.38 1.27L125.38 1.27Q124.36 1.27 123.55 0.83 122.74 0.39 122.21-0.32 121.67-1.03 121.38-1.93 121.08-2.83 121.08-3.81L121.08-3.81Q121.08-5.42 121.18-7.06 121.28-8.69 121.47-10.3L121.47-10.3 116.64-9.81Q116.49-8.54 116.32-6.76 116.15-4.98 115.64-3.34 115.13-1.71 114.1-0.54 113.08 0.63 111.27 0.63L111.27 0.63Q110.15 0.63 109.41 0.12 108.68-0.39 108.24-1.2 107.8-2 107.61-2.98 107.41-3.96 107.41-4.83L107.41-4.83Q107.41-7.76 107.66-10.67 107.9-13.57 108-16.5L108-16.5Q108.1-19.58 108.07-22.68 108.05-25.78 108.14-28.91L108.14-28.91Q108.19-29.93 108.22-31.3 108.24-32.67 108.56-33.86 108.88-35.06 109.63-35.89 110.39-36.72 111.9-36.72L111.9-36.72Q114-36.72 115.08-35.62 116.15-34.52 116.59-32.89 117.03-31.25 117.03-29.42 117.03-27.59 117.03-26.12L117.03-26.12Q117.03-24.17 116.93-22.29 116.84-20.41 116.74-18.51L116.74-18.51 121.96-19.29Q122.01-21.68 122.06-24.02 122.11-26.37 122.26-28.71L122.26-28.71Q122.3-29.83 122.35-31.1 122.4-32.37 122.74-33.45 123.09-34.52 123.89-35.23 124.7-35.94 126.31-35.94L126.31-35.94Q127.68-35.94 128.53-35.16 129.38-34.38 129.9-33.25 130.41-32.13 130.61-30.86 130.8-29.59 130.8-28.56L130.8-28.56ZM145.2 1.61L145.2 1.61Q142.22 1.61 140.03 0.12 137.83-1.37 136.39-3.88 134.95-6.4 134.24-9.72 133.53-13.04 133.53-16.7L133.53-16.7Q133.53-20.12 134.29-23.63 135.05-27.15 136.61-29.98 138.17-32.81 140.56-34.62 142.96-36.43 146.28-36.43L146.28-36.43Q149.5-36.43 151.67-34.69 153.84-32.96 155.14-30.2 156.43-27.44 156.99-24.02 157.56-20.61 157.56-17.19L157.56-17.19Q157.56-13.38 156.8-9.99 156.04-6.59 154.5-4 152.97-1.42 150.65 0.1 148.33 1.61 145.2 1.61ZM145.79-25.63L145.79-25.63Q144.86-25.63 144.2-24.9 143.54-24.17 143.1-22.97 142.66-21.78 142.47-20.29 142.27-18.8 142.27-17.29L142.27-17.29Q142.27-15.58 142.49-13.87 142.71-12.16 143.15-10.79 143.59-9.42 144.25-8.59 144.91-7.76 145.84-7.76L145.84-7.76Q146.91-7.76 147.55-8.84 148.18-9.91 148.55-11.43 148.91-12.94 149.04-14.55 149.16-16.16 149.16-17.24L149.16-17.24Q149.16-18.55 148.99-20.02 148.82-21.48 148.43-22.73 148.03-23.97 147.4-24.8 146.76-25.63 145.79-25.63ZM193.69-5.32L193.69-5.32Q193.54-4.05 193.27-2.83 193-1.61 192.61-0.66 192.22 0.29 191.61 0.85 191 1.42 190.22 1.42L190.22 1.42Q189.44 1.42 188.8 0.22 188.17-0.98 187.61-2.95 187.05-4.93 186.58-7.42 186.12-9.91 185.75-12.48 185.39-15.04 185.14-17.48 184.9-19.92 184.75-21.73L184.75-21.73Q184.46-19.87 184.07-17.58 183.68-15.28 183.14-12.92 182.6-10.55 181.97-8.28 181.33-6.01 180.6-4.22 179.87-2.44 179.04-1.37 178.21-0.29 177.28-0.29L177.28-0.29Q176.45-0.29 175.62-1.42 174.79-2.54 174.01-4.37 173.23-6.2 172.54-8.45 171.86-10.69 171.27-12.96 170.69-15.23 170.25-17.26 169.81-19.29 169.57-20.65L169.57-20.65Q169.57-19.63 169.54-18.38 169.52-17.14 169.52-16.6L169.52-16.6Q169.52-16.36 169.49-14.99 169.47-13.62 169.32-11.72 169.17-9.81 168.88-7.64 168.59-5.47 168.03-3.61 167.47-1.76 166.64-0.49 165.81 0.78 164.58 0.88L164.58 0.88Q163.61 0.44 162.95-0.61 162.29-1.66 161.85-3.08 161.41-4.49 161.17-6.1 160.92-7.71 160.78-9.25 160.63-10.79 160.61-12.11 160.58-13.43 160.58-14.26L160.58-14.26Q160.58-15.72 160.75-17.94 160.92-20.17 161.31-22.61 161.7-25.05 162.34-27.49 162.97-29.93 163.88-31.86 164.78-33.79 165.98-35.01 167.17-36.23 168.74-36.23L168.74-36.23Q169.47-36.23 170.3-35.4 171.13-34.57 171.96-33.23 172.79-31.88 173.57-30.22 174.35-28.56 175.06-26.88 175.77-25.2 176.3-23.66 176.84-22.12 177.18-21.04L177.18-21.04Q177.57-22.22 178.16-23.78 178.74-25.34 179.45-27.03 180.16-28.71 181.02-30.35 181.87-31.98 182.8-33.28 183.73-34.57 184.68-35.38 185.63-36.18 186.61-36.18L186.61-36.18Q188.32-36.18 189.54-34.91 190.76-33.64 191.59-31.62 192.42-29.59 192.9-27.08 193.39-24.56 193.66-22.09 193.93-19.63 194-17.48 194.08-15.33 194.08-14.01L194.08-14.01Q194.08-13.48 194.08-12.55 194.08-11.62 194.05-10.45 194.03-9.28 193.93-7.96 193.83-6.64 193.69-5.32ZM218.83-7.67L218.83-7.67Q218.83-6.74 218.34-5.86L218.34-5.86Q217.85-5.03 216.05-3.91 214.24-2.78 212.04-1.78 209.85-0.78 207.8-0.07 205.74 0.63 204.77 0.63L204.77 0.63Q204.08 0.63 203.16 0.32 202.23 0 201.3-0.49 200.37-0.98 199.62-1.61 198.86-2.25 198.52-2.83L198.52-2.83Q198.32-3.17 198.15-4.2 197.98-5.22 197.86-6.59 197.74-7.96 197.64-9.5 197.54-11.04 197.47-12.43 197.39-13.82 197.37-14.89 197.35-15.97 197.35-16.46L197.35-16.46Q197.35-18.26 197.47-20.61 197.59-22.95 197.93-25.32 198.27-27.69 198.93-29.86 199.59-32.03 200.71-33.54L200.71-33.54Q201.06-33.98 202.08-34.47 203.11-34.96 204.5-35.4 205.89-35.84 207.5-36.23 209.11-36.62 210.6-36.89 212.09-37.16 213.31-37.33 214.53-37.5 215.17-37.5L215.17-37.5Q215.9-37.5 216.56-37.18 217.22-36.87 217.68-36.33 218.15-35.79 218.42-35.13 218.68-34.47 218.68-33.74L218.68-33.74Q218.68-33.11 218.51-32.67 218.34-32.23 218-31.69L218-31.69Q217.51-31.05 215.95-30.18 214.39-29.3 212.56-28.44 210.72-27.59 209.04-26.9 207.36-26.22 206.67-25.93L206.67-25.93Q206.48-24.8 206.26-23.66 206.04-22.51 205.94-21.34L205.94-21.34Q207.45-22.12 209.36-22.8 211.26-23.49 212.97-23.49L212.97-23.49Q216.44-23.49 216.44-20.07L216.44-20.07Q216.44-19.24 216.12-18.6 215.8-17.97 215.29-17.48 214.78-16.99 214.12-16.63 213.46-16.26 212.82-15.92L212.82-15.92Q211.26-15.09 209.55-14.48 207.84-13.87 206.13-13.28L206.13-13.28Q206.04-12.89 205.94-12.43 205.84-11.96 205.84-11.52L205.84-11.52Q205.84-10.84 205.94-10.16 206.04-9.47 206.13-8.79L206.13-8.79Q206.72-8.98 208.01-9.42 209.31-9.86 210.72-10.3 212.14-10.74 213.46-11.06 214.78-11.38 215.41-11.38L215.41-11.38Q216.14-11.38 216.78-11.06 217.41-10.74 217.85-10.23 218.29-9.72 218.56-9.03 218.83-8.35 218.83-7.67Z" opacity="1" transform="matrix(1,0,0,1,0,0)" fill="#000000" class="undefined-text-0" data-fill-palette-color="primary" id="text-0"></path></svg></g></svg></g></svg></g></svg></g><g><svg viewBox="0 0 192.62074509923676 277.58117783132525" height="277.58117783132525" width="192.62074509923676"><g><svg xmlns="http://www.w3.org/2000/svg" xmlns:xlink="http://www.w3.org/1999/xlink" version="1.1" x="0" y="0" viewBox="18.746675491333008 5 62.45332336425781 90" enable-background="new 0 0 100 100" xml:space="preserve" height="277.58117783132525" width="192.62074509923676" class="icon-icon-0" data-fill-palette-color="accent" id="icon-0"><path d="M81.2 65.4L81 24.5c0-1.7-1-3.1-2.5-3.6-0.5-0.2-0.9-0.3-1.5-0.3-2.2 0-3.9 1.8-3.9 4l0.1 23.1c0 0.5-0.2 1-0.6 1.4-0.4 0.4-0.9 0.6-1.4 0.6-0.3 0-0.5 0-0.7-0.1-0.7-0.3-1.2-1-1.3-1.8l-0.2-35c0-1.7-1-3.1-2.5-3.6-0.5-0.2-0.9-0.3-1.5-0.3-2.2 0-3.9 1.8-3.9 4l0.2 35c0 0.5-0.2 1-0.6 1.4-0.4 0.4-0.9 0.6-1.4 0.6-0.3 0-0.5 0-0.7-0.1-0.7-0.3-1.2-1-1.3-1.8L57.3 8.9c0-1.7-1-3.1-2.5-3.6C54.3 5.1 53.8 5 53.3 5c-2.2 0-3.9 1.8-3.9 4l0.2 38.9c0 0.5-0.2 1-0.6 1.4-0.4 0.4-0.9 0.6-1.4 0.6-0.3 0-0.5 0-0.7-0.1-0.7-0.3-1.2-1-1.3-1.8 0 0 1.3-16.4-11.6-17.4-11.2-0.9-14.5 8.9-14.5 8.9-3.2 10.3 4.7 12.1 6.8 8 0 0 0.6-1.4 0.4-4-0.2-2.8 2.4-5.7 7-4.5 5 1.2 4.1 11.2 4.1 11.2l0 0L37.8 60c0 0.3-0.2 0.6-0.5 0.7-0.2 0.1-0.3 0-0.5 0-0.1 0-0.2-0.1-0.3-0.2l-5-3.4c0 0-2.1-6.5-4.3-7.7C26.7 49 26.1 49 25.4 49c-1 0-2.1 0.3-2.9 1-1.8 1.4-2.4 3.8-1.6 5.9 0.2 0.4 4.2 9.4 4.2 9.4L44 92.1c0.7 1.1 1.8 2 3 2.5 0.7 0.3 1.5 0.4 2.4 0.4l19.2-0.1c2.9 0 5.4-2 6.1-4.7L81.2 65.4C81.2 65.4 81.2 65.4 81.2 65.4L81.2 65.4zM81.2 65.4" fill="#000000" data-fill-palette-color="accent"></path></svg></g></svg></g></svg></g><defs></defs></svg><rect width="395.52" height="181.5209199948688" fill="none" stroke="none" visibility="hidden"></rect></g></svg></g></svg>